0
SECTION
2
HEADER
9
$ACADVER
1
AC1018
9
$INSUNITS
70
4
9
$TEXTSTYLE
7
Standard
9
$HANDSEED
5
22F
0
ENDSEC
0
SECTION
2
TABLES
0
TABLE
2
VPORT
5
8
100
AcDbSymbolTable
0
VPORT
5
EA
100
AcDbSymbolTableRecord
100
AcDbViewportTableRecord
2
*Active
70
0
0
ENDTAB
0
TABLE
2
LTYPE
5
5
100
AcDbSymbolTable
0
LTYPE
5
14
100
AcDbSymbolTableRecord
100
AcDbLinetypeTableRecord
2
ByBlock
70
0
0
LTYPE
5
15
100
AcDbSymbolTableRecord
100
AcDbLinetypeTableRecord
2
ByLayer
70
0
0
ENDTAB
0
TABLE
2
LAYER
5
2
100
AcDbSymbolTable
0
LAYER
5
10
100
AcDbSymbolTableRecord
100
AcDbLayerTableRecord
2
0
70
0
390
F
0
ENDTAB
0
TABLE
2
STYLE
5
3
100
AcDbSymbolTable
0
STYLE
5
11
100
AcDbSymbolTableRecord
100
AcDbTextStyleTableRecord
2
Standard
70
0
0
ENDTAB
0
TABLE
2
VIEW
5
6
100
AcDbSymbolTable
70
0
0
ENDTAB
0
TABLE
2
UCS
5
7
100
AcDbSymbolTable
70
0
0
ENDTAB
0
TABLE
2
APPID
5
9
100
AcDbSymbolTable
70
8
0
APPID
5
12
100
AcDbSymbolTableRecord
100
AcDbRegAppTableRecord
2
ACAD
70
0
0
ENDTAB
0
TABLE
2
DIMSTYLE
5
A
100
AcDbSymbolTable
70
4
100
AcDbDimStyleTable
71
2
0
ENDTAB
0
TABLE
2
BLOCK_RECORD
5
1
100
AcDbSymbolTable
70
2
0
BLOCK_RECORD
5
1F
100
AcDbSymbolTableRecord
100
AcDbBlockTableRecord
2
*Model_Space
0
BLOCK_RECORD
5
D2
100
AcDbSymbolTableRecord
100
AcDbBlockTableRecord
2
*Paper_Space
0
ENDTAB
0
ENDSEC
0
SECTION
2
BLOCKS
0
BLOCK
5
20
100
AcDbEntity
100
AcDbBlockBegin
2
*Model_Space
70
0
0
ENDBLK
5
21
100
AcDbEntity
100
AcDbBlockEnd
0
BLOCK
5
D4
100
AcDbEntity
100
AcDbBlockBegin
2
*Paper_Space
70
0
0
ENDBLK
5
D5
100
AcDbEntity
100
AcDbBlockEnd
0
ENDSEC
0
SECTION
2
ENTITIES
0
LINE
5
100
100
AcDbEntity
8
0
100
AcDbLine
10
2856.000000
20
393.000000
11
524.000000
21
401.000000
0
LINE
5
101
100
AcDbEntity
8
0
100
AcDbLine
10
522.000000
20
2247.000000
11
524.000000
21
401.000000
0
LINE
5
102
100
AcDbEntity
8
0
100
AcDbLine
10
591.000000
20
2252.000000
11
522.000000
21
2247.000000
0
LINE
5
103
100
AcDbEntity
8
0
100
AcDbLine
10
592.000000
20
2410.000000
11
591.000000
21
2252.000000
0
LINE
5
104
100
AcDbEntity
8
0
100
AcDbLine
10
1063.000000
20
2406.000000
11
592.000000
21
2410.000000
0
LINE
5
105
100
AcDbEntity
8
0
100
AcDbLine
10
1069.000000
20
2255.000000
11
1063.000000
21
2406.000000
0
LINE
5
106
100
AcDbEntity
8
0
100
AcDbLine
10
1080.000000
20
2249.000000
11
1069.000000
21
2255.000000
0
LINE
5
107
100
AcDbEntity
8
0
100
AcDbLine
10
1224.000000
20
2253.000000
11
1080.000000
21
2249.000000
0
LINE
5
108
100
AcDbEntity
8
0
100
AcDbLine
10
1228.000000
20
2408.000000
11
1224.000000
21
2253.000000
0
LINE
5
109
100
AcDbEntity
8
0
100
AcDbLine
10
1691.000000
20
2405.000000
11
1228.000000
21
2408.000000
0
LINE
5
110
100
AcDbEntity
8
0
100
AcDbLine
10
1691.000000
20
2249.000000
11
1691.000000
21
2405.000000
0
LINE
5
111
100
AcDbEntity
8
0
100
AcDbLine
10
1821.000000
20
2249.000000
11
1691.000000
21
2249.000000
0
LINE
5
112
100
AcDbEntity
8
0
100
AcDbLine
10
1828.000000
20
2235.000000
11
1821.000000
21
2249.000000
0
LINE
5
113
100
AcDbEntity
8
0
100
AcDbLine
10
1856.000000
20
2259.000000
11
1828.000000
21
2235.000000
0
LINE
5
114
100
AcDbEntity
8
0
100
AcDbLine
10
1859.000000
20
2407.000000
11
1856.000000
21
2259.000000
0
LINE
5
115
100
AcDbEntity
8
0
100
AcDbLine
10
2319.000000
20
2399.000000
11
1859.000000
21
2407.000000
0
LINE
5
116
100
AcDbEntity
8
0
100
AcDbLine
10
2330.000000
20
2391.000000
11
2319.000000
21
2399.000000
0
LINE
5
117
100
AcDbEntity
8
0
100
AcDbLine
10
2323.000000
20
2248.000000
11
2330.000000
21
2391.000000
0
LINE
5
118
100
AcDbEntity
8
0
100
AcDbLine
10
2461.000000
20
2239.000000
11
2323.000000
21
2248.000000
0
LINE
5
119
100
AcDbEntity
8
0
100
AcDbLine
10
2490.000000
20
2247.000000
11
2461.000000
21
2239.000000
0
LINE
5
120
100
AcDbEntity
8
0
100
AcDbLine
10
2496.000000
20
2400.000000
11
2490.000000
21
2247.000000
0
LINE
5
121
100
AcDbEntity
8
0
100
AcDbLine
10
2952.000000
20
2393.000000
11
2496.000000
21
2400.000000
0
LINE
5
122
100
AcDbEntity
8
0
100
AcDbLine
10
2956.000000
20
2231.000000
11
2952.000000
21
2393.000000
0
LINE
5
123
100
AcDbEntity
8
0
100
AcDbLine
10
3110.000000
20
2231.000000
11
2956.000000
21
2231.000000
0
LINE
5
124
100
AcDbEntity
8
0
100
AcDbLine
10
3120.000000
20
2392.000000
11
3110.000000
21
2231.000000
0
LINE
5
125
100
AcDbEntity
8
0
100
AcDbLine
10
3536.000000
20
2385.000000
11
3120.000000
21
2392.000000
0
LINE
5
126
100
AcDbEntity
8
0
100
AcDbLine
10
3528.000000
20
2166.000000
11
3536.000000
21
2385.000000
0
LINE
5
127
100
AcDbEntity
8
0
100
AcDbLine
10
3385.000000
20
2167.000000
11
3528.000000
21
2166.000000
0
LINE
5
128
100
AcDbEntity
8
0
100
AcDbLine
10
3374.000000
20
2015.000000
11
3385.000000
21
2167.000000
0
LINE
5
129
100
AcDbEntity
8
0
100
AcDbLine
10
3383.000000
20
2005.000000
11
3374.000000
21
2015.000000
0
LINE
5
130
100
AcDbEntity
8
0
100
AcDbLine
10
3534.000000
20
2003.000000
11
3383.000000
21
2005.000000
0
LINE
5
131
100
AcDbEntity
8
0
100
AcDbLine
10
3525.000000
20
1729.000000
11
3534.000000
21
2003.000000
0
LINE
5
132
100
AcDbEntity
8
0
100
AcDbLine
10
3419.000000
20
1729.000000
11
3525.000000
21
1729.000000
0
LINE
5
133
100
AcDbEntity
8
0
100
AcDbLine
10
3400.000000
20
1740.000000
11
3419.000000
21
1729.000000
0
LINE
5
134
100
AcDbEntity
8
0
100
AcDbLine
10
3378.000000
20
1718.000000
11
3400.000000
21
1740.000000
0
LINE
5
135
100
AcDbEntity
8
0
100
AcDbLine
10
3384.000000
20
1566.000000
11
3378.000000
21
1718.000000
0
LINE
5
136
100
AcDbEntity
8
0
100
AcDbLine
10
3532.000000
20
1567.000000
11
3384.000000
21
1566.000000
0
LINE
5
137
100
AcDbEntity
8
0
100
AcDbLine
10
3523.000000
20
1285.000000
11
3532.000000
21
1567.000000
0
LINE
5
138
100
AcDbEntity
8
0
100
AcDbLine
10
3406.000000
20
1298.000000
11
3523.000000
21
1285.000000
0
LINE
5
139
100
AcDbEntity
8
0
100
AcDbLine
10
3376.000000
20
1290.000000
11
3406.000000
21
1298.000000
0
LINE
5
140
100
AcDbEntity
8
0
100
AcDbLine
10
3373.000000
20
1166.000000
11
3376.000000
21
1290.000000
0
LINE
5
141
100
AcDbEntity
8
0
100
AcDbLine
10
3354.000000
20
1157.000000
11
3373.000000
21
1166.000000
0
LINE
5
142
100
AcDbEntity
8
0
100
AcDbLine
10
3360.000000
20
1140.000000
11
3354.000000
21
1157.000000
0
LINE
5
143
100
AcDbEntity
8
0
100
AcDbLine
10
3386.000000
20
1147.000000
11
3360.000000
21
1140.000000
0
LINE
5
144
100
AcDbEntity
8
0
100
AcDbLine
10
3392.000000
20
1132.000000
11
3386.000000
21
1147.000000
0
LINE
5
145
100
AcDbEntity
8
0
100
AcDbLine
10
3520.000000
20
1127.000000
11
3392.000000
21
1132.000000
0
LINE
5
146
100
AcDbEntity
8
0
100
AcDbLine
10
3519.000000
20
726.000000
11
3520.000000
21
1127.000000
0
LINE
5
147
100
AcDbEntity
8
0
100
AcDbLine
10
3161.000000
20
556.000000
11
3519.000000
21
726.000000
0
LINE
5
148
100
AcDbEntity
8
0
100
AcDbLine
10
2856.000000
20
393.000000
11
3161.000000
21
556.000000
0
CIRCLE
5
149
100
AcDbEntity
8
0
100
AcDbCircle
10
2103.916748
20
1419.083374
40
14.596265
0
CIRCLE
5
150
100
AcDbEntity
8
0
100
AcDbCircle
10
2103.916748
20
1419.083374
40
14.596265
0
CIRCLE
5
151
100
AcDbEntity
8
0
100
AcDbCircle
10
3209.125000
20
853.375000
40
12.857365
0
CIRCLE
5
152
100
AcDbEntity
8
0
100
AcDbCircle
10
3209.125000
20
853.375000
40
12.857365
0
CIRCLE
5
153
100
AcDbEntity
8
0
100
AcDbCircle
10
3363.559326
20
782.593140
40
66.005135
0
CIRCLE
5
154
100
AcDbEntity
8
0
100
AcDbCircle
10
3363.559326
20
782.593140
40
66.005135
0
CIRCLE
5
155
100
AcDbEntity
8
0
100
AcDbCircle
10
2770.000000
20
634.000000
40
14.009988
0
CIRCLE
5
156
100
AcDbEntity
8
0
100
AcDbCircle
10
2770.000000
20
634.000000
40
14.009988
0
CIRCLE
5
157
100
AcDbEntity
8
0
100
AcDbCircle
10
3096.045898
20
628.307312
40
13.357929
0
CIRCLE
5
158
100
AcDbEntity
8
0
100
AcDbCircle
10
3096.045898
20
628.307312
40
13.357929
0
CIRCLE
5
159
100
AcDbEntity
8
0
100
AcDbCircle
10
834.500000
20
529.000000
40
63.649521
0
CIRCLE
5
160
100
AcDbEntity
8
0
100
AcDbCircle
10
834.500000
20
529.000000
40
63.649521
0
CIRCLE
5
161
100
AcDbEntity
8
0
100
AcDbCircle
10
2856.500000
20
522.500000
40
68.091927
0
CIRCLE
5
162
100
AcDbEntity
8
0
100
AcDbCircle
10
2856.500000
20
522.500000
40
68.091927
0
CIRCLE
5
163
100
AcDbEntity
8
0
100
AcDbCircle
10
2639.207031
20
522.052063
40
68.982704
0
CIRCLE
5
164
100
AcDbEntity
8
0
100
AcDbCircle
10
2639.207031
20
522.052063
40
68.982704
0
CIRCLE
5
165
100
AcDbEntity
8
0
100
AcDbCircle
10
1460.360107
20
519.033081
40
65.609543
0
CIRCLE
5
166
100
AcDbEntity
8
0
100
AcDbCircle
10
1460.360107
20
519.033081
40
65.609543
0
CIRCLE
5
167
100
AcDbEntity
8
0
100
AcDbCircle
10
2096.116943
20
517.575684
40
65.900215
0
CIRCLE
5
168
100
AcDbEntity
8
0
100
AcDbCircle
10
2096.116943
20
517.575684
40
65.900215
0
ENDSEC
0
SECTION
2
OBJECTS
0
DICTIONARY
5
C
100
AcDbDictionary
3
ACAD_GROUP
350
D
0
DICTIONARY
5
D
100
AcDbDictionary
0
ENDSEC
0
EOF
