0
SECTION
2
HEADER
9
$ACADVER
1
AC1018
9
$INSUNITS
70
4
9
$TEXTSTYLE
7
Standard
9
$HANDSEED
5
22F
0
ENDSEC
0
SECTION
2
TABLES
0
TABLE
2
VPORT
5
8
100
AcDbSymbolTable
0
VPORT
5
EA
100
AcDbSymbolTableRecord
100
AcDbViewportTableRecord
2
*Active
70
0
0
ENDTAB
0
TABLE
2
LTYPE
5
5
100
AcDbSymbolTable
0
LTYPE
5
14
100
AcDbSymbolTableRecord
100
AcDbLinetypeTableRecord
2
ByBlock
70
0
0
LTYPE
5
15
100
AcDbSymbolTableRecord
100
AcDbLinetypeTableRecord
2
ByLayer
70
0
0
ENDTAB
0
TABLE
2
LAYER
5
2
100
AcDbSymbolTable
0
LAYER
5
10
100
AcDbSymbolTableRecord
100
AcDbLayerTableRecord
2
0
70
0
390
F
0
ENDTAB
0
TABLE
2
STYLE
5
3
100
AcDbSymbolTable
0
STYLE
5
11
100
AcDbSymbolTableRecord
100
AcDbTextStyleTableRecord
2
Standard
70
0
0
ENDTAB
0
TABLE
2
VIEW
5
6
100
AcDbSymbolTable
70
0
0
ENDTAB
0
TABLE
2
UCS
5
7
100
AcDbSymbolTable
70
0
0
ENDTAB
0
TABLE
2
APPID
5
9
100
AcDbSymbolTable
70
8
0
APPID
5
12
100
AcDbSymbolTableRecord
100
AcDbRegAppTableRecord
2
ACAD
70
0
0
ENDTAB
0
TABLE
2
DIMSTYLE
5
A
100
AcDbSymbolTable
70
4
100
AcDbDimStyleTable
71
2
0
ENDTAB
0
TABLE
2
BLOCK_RECORD
5
1
100
AcDbSymbolTable
70
2
0
BLOCK_RECORD
5
1F
100
AcDbSymbolTableRecord
100
AcDbBlockTableRecord
2
*Model_Space
0
BLOCK_RECORD
5
D2
100
AcDbSymbolTableRecord
100
AcDbBlockTableRecord
2
*Paper_Space
0
ENDTAB
0
ENDSEC
0
SECTION
2
BLOCKS
0
BLOCK
5
20
100
AcDbEntity
100
AcDbBlockBegin
2
*Model_Space
70
0
0
ENDBLK
5
21
100
AcDbEntity
100
AcDbBlockEnd
0
BLOCK
5
D4
100
AcDbEntity
100
AcDbBlockBegin
2
*Paper_Space
70
0
0
ENDBLK
5
D5
100
AcDbEntity
100
AcDbBlockEnd
0
ENDSEC
0
SECTION
2
ENTITIES
0
LINE
5
100
100
AcDbEntity
8
0
100
AcDbLine
10
1572.000000
20
391.000000
11
523.000000
21
402.000000
0
LINE
5
101
100
AcDbEntity
8
0
100
AcDbLine
10
520.000000
20
2246.000000
11
523.000000
21
402.000000
0
LINE
5
102
100
AcDbEntity
8
0
100
AcDbLine
10
594.000000
20
2255.000000
11
520.000000
21
2246.000000
0
LINE
5
103
100
AcDbEntity
8
0
100
AcDbLine
10
592.000000
20
2412.000000
11
594.000000
21
2255.000000
0
LINE
5
104
100
AcDbEntity
8
0
100
AcDbLine
10
1068.000000
20
2407.000000
11
592.000000
21
2412.000000
0
LINE
5
105
100
AcDbEntity
8
0
100
AcDbLine
10
1077.000000
20
2251.000000
11
1068.000000
21
2407.000000
0
LINE
5
106
100
AcDbEntity
8
0
100
AcDbLine
10
1223.000000
20
2257.000000
11
1077.000000
21
2251.000000
0
LINE
5
107
100
AcDbEntity
8
0
100
AcDbLine
10
1228.000000
20
2410.000000
11
1223.000000
21
2257.000000
0
LINE
5
108
100
AcDbEntity
8
0
100
AcDbLine
10
1691.000000
20
2406.000000
11
1228.000000
21
2410.000000
0
LINE
5
109
100
AcDbEntity
8
0
100
AcDbLine
10
1691.000000
20
2250.000000
11
1691.000000
21
2406.000000
0
LINE
5
110
100
AcDbEntity
8
0
100
AcDbLine
10
1823.000000
20
2250.000000
11
1691.000000
21
2250.000000
0
LINE
5
111
100
AcDbEntity
8
0
100
AcDbLine
10
1827.000000
20
2237.000000
11
1823.000000
21
2250.000000
0
LINE
5
112
100
AcDbEntity
8
0
100
AcDbLine
10
1855.000000
20
2255.000000
11
1827.000000
21
2237.000000
0
LINE
5
113
100
AcDbEntity
8
0
100
AcDbLine
10
1858.000000
20
2408.000000
11
1855.000000
21
2255.000000
0
LINE
5
114
100
AcDbEntity
8
0
100
AcDbLine
10
2328.000000
20
2398.000000
11
1858.000000
21
2408.000000
0
LINE
5
115
100
AcDbEntity
8
0
100
AcDbLine
10
2325.000000
20
2246.000000
11
2328.000000
21
2398.000000
0
LINE
5
116
100
AcDbEntity
8
0
100
AcDbLine
10
2478.000000
20
2240.000000
11
2325.000000
21
2246.000000
0
LINE
5
117
100
AcDbEntity
8
0
100
AcDbLine
10
2490.000000
20
2250.000000
11
2478.000000
21
2240.000000
0
LINE
5
118
100
AcDbEntity
8
0
100
AcDbLine
10
2488.000000
20
2399.000000
11
2490.000000
21
2250.000000
0
LINE
5
119
100
AcDbEntity
8
0
100
AcDbLine
10
2953.000000
20
2394.000000
11
2488.000000
21
2399.000000
0
LINE
5
120
100
AcDbEntity
8
0
100
AcDbLine
10
2956.000000
20
2233.000000
11
2953.000000
21
2394.000000
0
LINE
5
121
100
AcDbEntity
8
0
100
AcDbLine
10
3109.000000
20
2233.000000
11
2956.000000
21
2233.000000
0
LINE
5
122
100
AcDbEntity
8
0
100
AcDbLine
10
3112.000000
20
2384.000000
11
3109.000000
21
2233.000000
0
LINE
5
123
100
AcDbEntity
8
0
100
AcDbLine
10
3121.000000
20
2394.000000
11
3112.000000
21
2384.000000
0
LINE
5
124
100
AcDbEntity
8
0
100
AcDbLine
10
3536.000000
20
2387.000000
11
3121.000000
21
2394.000000
0
LINE
5
125
100
AcDbEntity
8
0
100
AcDbLine
10
3529.000000
20
2169.000000
11
3536.000000
21
2387.000000
0
LINE
5
126
100
AcDbEntity
8
0
100
AcDbLine
10
3385.000000
20
2168.000000
11
3529.000000
21
2169.000000
0
LINE
5
127
100
AcDbEntity
8
0
100
AcDbLine
10
3372.000000
20
2018.000000
11
3385.000000
21
2168.000000
0
LINE
5
128
100
AcDbEntity
8
0
100
AcDbLine
10
3391.000000
20
2006.000000
11
3372.000000
21
2018.000000
0
LINE
5
129
100
AcDbEntity
8
0
100
AcDbLine
10
3534.000000
20
2005.000000
11
3391.000000
21
2006.000000
0
LINE
5
130
100
AcDbEntity
8
0
100
AcDbLine
10
3525.000000
20
1731.000000
11
3534.000000
21
2005.000000
0
LINE
5
131
100
AcDbEntity
8
0
100
AcDbLine
10
3413.000000
20
1731.000000
11
3525.000000
21
1731.000000
0
LINE
5
132
100
AcDbEntity
8
0
100
AcDbLine
10
3402.000000
20
1742.000000
11
3413.000000
21
1731.000000
0
LINE
5
133
100
AcDbEntity
8
0
100
AcDbLine
10
3377.000000
20
1719.000000
11
3402.000000
21
1742.000000
0
LINE
5
134
100
AcDbEntity
8
0
100
AcDbLine
10
3383.000000
20
1567.000000
11
3377.000000
21
1719.000000
0
LINE
5
135
100
AcDbEntity
8
0
100
AcDbLine
10
3532.000000
20
1570.000000
11
3383.000000
21
1567.000000
0
LINE
5
136
100
AcDbEntity
8
0
100
AcDbLine
10
3526.000000
20
1290.000000
11
3532.000000
21
1570.000000
0
LINE
5
137
100
AcDbEntity
8
0
100
AcDbLine
10
3377.000000
20
1292.000000
11
3526.000000
21
1290.000000
0
LINE
5
138
100
AcDbEntity
8
0
100
AcDbLine
10
3374.000000
20
1173.000000
11
3377.000000
21
1292.000000
0
LINE
5
139
100
AcDbEntity
8
0
100
AcDbLine
10
3357.000000
20
1165.000000
11
3374.000000
21
1173.000000
0
LINE
5
140
100
AcDbEntity
8
0
100
AcDbLine
10
3360.000000
20
1142.000000
11
3357.000000
21
1165.000000
0
LINE
5
141
100
AcDbEntity
8
0
100
AcDbLine
10
3385.000000
20
1149.000000
11
3360.000000
21
1142.000000
0
LINE
5
142
100
AcDbEntity
8
0
100
AcDbLine
10
3396.000000
20
1133.000000
11
3385.000000
21
1149.000000
0
LINE
5
143
100
AcDbEntity
8
0
100
AcDbLine
10
3521.000000
20
1127.000000
11
3396.000000
21
1133.000000
0
LINE
5
144
100
AcDbEntity
8
0
100
AcDbLine
10
3523.000000
20
730.000000
11
3521.000000
21
1127.000000
0
LINE
5
145
100
AcDbEntity
8
0
100
AcDbLine
10
3293.000000
20
624.000000
11
3523.000000
21
730.000000
0
LINE
5
146
100
AcDbEntity
8
0
100
AcDbLine
10
2859.000000
20
396.000000
11
3293.000000
21
624.000000
0
LINE
5
147
100
AcDbEntity
8
0
100
AcDbLine
10
1572.000000
20
391.000000
11
2859.000000
21
396.000000
0
LINE
5
148
100
AcDbEntity
8
0
100
AcDbLine
10
2089.000000
20
1421.000000
11
2098.000000
21
1407.000000
0
LINE
5
149
100
AcDbEntity
8
0
100
AcDbLine
10
2118.000000
20
1420.000000
11
2098.000000
21
1407.000000
0
LINE
5
150
100
AcDbEntity
8
0
100
AcDbLine
10
2108.000000
20
1434.000000
11
2118.000000
21
1420.000000
0
LINE
5
151
100
AcDbEntity
8
0
100
AcDbLine
10
2089.000000
20
1421.000000
11
2108.000000
21
1434.000000
0
LINE
5
152
100
AcDbEntity
8
0
100
AcDbLine
10
3196.000000
20
853.000000
11
3215.000000
21
843.000000
0
LINE
5
153
100
AcDbEntity
8
0
100
AcDbLine
10
3220.000000
20
861.000000
11
3215.000000
21
843.000000
0
LINE
5
154
100
AcDbEntity
8
0
100
AcDbLine
10
3202.000000
20
865.000000
11
3220.000000
21
861.000000
0
LINE
5
155
100
AcDbEntity
8
0
100
AcDbLine
10
3196.000000
20
853.000000
11
3202.000000
21
865.000000
0
LINE
5
156
100
AcDbEntity
8
0
100
AcDbLine
10
3336.000000
20
724.000000
11
3388.000000
21
721.000000
0
LINE
5
157
100
AcDbEntity
8
0
100
AcDbLine
10
3424.000000
20
753.000000
11
3388.000000
21
721.000000
0
LINE
5
158
100
AcDbEntity
8
0
100
AcDbLine
10
3430.000000
20
798.000000
11
3424.000000
21
753.000000
0
LINE
5
159
100
AcDbEntity
8
0
100
AcDbLine
10
3403.000000
20
838.000000
11
3430.000000
21
798.000000
0
LINE
5
160
100
AcDbEntity
8
0
100
AcDbLine
10
3353.000000
20
850.000000
11
3403.000000
21
838.000000
0
LINE
5
161
100
AcDbEntity
8
0
100
AcDbLine
10
3303.000000
20
814.000000
11
3353.000000
21
850.000000
0
LINE
5
162
100
AcDbEntity
8
0
100
AcDbLine
10
3299.000000
20
766.000000
11
3303.000000
21
814.000000
0
LINE
5
163
100
AcDbEntity
8
0
100
AcDbLine
10
3336.000000
20
724.000000
11
3299.000000
21
766.000000
0
LINE
5
164
100
AcDbEntity
8
0
100
AcDbLine
10
2756.000000
20
637.000000
11
2768.000000
21
621.000000
0
LINE
5
165
100
AcDbEntity
8
0
100
AcDbLine
10
2782.000000
20
627.000000
11
2768.000000
21
621.000000
0
LINE
5
166
100
AcDbEntity
8
0
100
AcDbLine
10
2775.000000
20
647.000000
11
2782.000000
21
627.000000
0
LINE
5
167
100
AcDbEntity
8
0
100
AcDbLine
10
2756.000000
20
637.000000
11
2775.000000
21
647.000000
0
LINE
5
168
100
AcDbEntity
8
0
100
AcDbLine
10
3085.000000
20
622.000000
11
3104.000000
21
617.000000
0
LINE
5
169
100
AcDbEntity
8
0
100
AcDbLine
10
3106.000000
20
637.000000
11
3104.000000
21
617.000000
0
LINE
5
170
100
AcDbEntity
8
0
100
AcDbLine
10
3088.000000
20
641.000000
11
3106.000000
21
637.000000
0
LINE
5
171
100
AcDbEntity
8
0
100
AcDbLine
10
3085.000000
20
622.000000
11
3088.000000
21
641.000000
0
LINE
5
172
100
AcDbEntity
8
0
100
AcDbLine
10
782.000000
20
486.000000
11
817.000000
21
465.000000
0
LINE
5
173
100
AcDbEntity
8
0
100
AcDbLine
10
865.000000
20
474.000000
11
817.000000
21
465.000000
0
LINE
5
174
100
AcDbEntity
8
0
100
AcDbLine
10
896.000000
20
515.000000
11
865.000000
21
474.000000
0
LINE
5
175
100
AcDbEntity
8
0
100
AcDbLine
10
884.000000
20
567.000000
11
896.000000
21
515.000000
0
LINE
5
176
100
AcDbEntity
8
0
100
AcDbLine
10
837.000000
20
596.000000
11
884.000000
21
567.000000
0
LINE
5
177
100
AcDbEntity
8
0
100
AcDbLine
10
773.000000
20
556.000000
11
837.000000
21
596.000000
0
LINE
5
178
100
AcDbEntity
8
0
100
AcDbLine
10
782.000000
20
486.000000
11
773.000000
21
556.000000
0
LINE
5
179
100
AcDbEntity
8
0
100
AcDbLine
10
2586.000000
20
486.000000
11
2628.000000
21
456.000000
0
LINE
5
180
100
AcDbEntity
8
0
100
AcDbLine
10
2686.000000
20
469.000000
11
2628.000000
21
456.000000
0
LINE
5
181
100
AcDbEntity
8
0
100
AcDbLine
10
2705.000000
20
499.000000
11
2686.000000
21
469.000000
0
LINE
5
182
100
AcDbEntity
8
0
100
AcDbLine
10
2708.000000
20
536.000000
11
2705.000000
21
499.000000
0
LINE
5
183
100
AcDbEntity
8
0
100
AcDbLine
10
2695.000000
20
563.000000
11
2708.000000
21
536.000000
0
LINE
5
184
100
AcDbEntity
8
0
100
AcDbLine
10
2647.000000
20
593.000000
11
2695.000000
21
563.000000
0
LINE
5
185
100
AcDbEntity
8
0
100
AcDbLine
10
2616.000000
20
582.000000
11
2647.000000
21
593.000000
0
LINE
5
186
100
AcDbEntity
8
0
100
AcDbLine
10
2581.000000
20
542.000000
11
2616.000000
21
582.000000
0
LINE
5
187
100
AcDbEntity
8
0
100
AcDbLine
10
2586.000000
20
486.000000
11
2581.000000
21
542.000000
0
LINE
5
188
100
AcDbEntity
8
0
100
AcDbLine
10
2798.000000
20
488.000000
11
2845.000000
21
455.000000
0
LINE
5
189
100
AcDbEntity
8
0
100
AcDbLine
10
2893.000000
20
465.000000
11
2845.000000
21
455.000000
0
LINE
5
190
100
AcDbEntity
8
0
100
AcDbLine
10
2919.000000
20
504.000000
11
2893.000000
21
465.000000
0
LINE
5
191
100
AcDbEntity
8
0
100
AcDbLine
10
2921.000000
20
537.000000
11
2919.000000
21
504.000000
0
LINE
5
192
100
AcDbEntity
8
0
100
AcDbLine
10
2907.000000
20
563.000000
11
2921.000000
21
537.000000
0
LINE
5
193
100
AcDbEntity
8
0
100
AcDbLine
10
2858.000000
20
594.000000
11
2907.000000
21
563.000000
0
LINE
5
194
100
AcDbEntity
8
0
100
AcDbLine
10
2802.000000
20
559.000000
11
2858.000000
21
594.000000
0
LINE
5
195
100
AcDbEntity
8
0
100
AcDbLine
10
2789.000000
20
523.000000
11
2802.000000
21
559.000000
0
LINE
5
196
100
AcDbEntity
8
0
100
AcDbLine
10
2798.000000
20
488.000000
11
2789.000000
21
523.000000
0
LINE
5
197
100
AcDbEntity
8
0
100
AcDbLine
10
2040.000000
20
482.000000
11
2076.000000
21
453.000000
0
LINE
5
198
100
AcDbEntity
8
0
100
AcDbLine
10
2111.000000
20
454.000000
11
2076.000000
21
453.000000
0
LINE
5
199
100
AcDbEntity
8
0
100
AcDbLine
10
2158.000000
20
493.000000
11
2111.000000
21
454.000000
0
LINE
5
200
100
AcDbEntity
8
0
100
AcDbLine
10
2158.000000
20
539.000000
11
2158.000000
21
493.000000
0
LINE
5
201
100
AcDbEntity
8
0
100
AcDbLine
10
2117.000000
20
582.000000
11
2158.000000
21
539.000000
0
LINE
5
202
100
AcDbEntity
8
0
100
AcDbLine
10
2085.000000
20
586.000000
11
2117.000000
21
582.000000
0
LINE
5
203
100
AcDbEntity
8
0
100
AcDbLine
10
2033.000000
20
540.000000
11
2085.000000
21
586.000000
0
LINE
5
204
100
AcDbEntity
8
0
100
AcDbLine
10
2040.000000
20
482.000000
11
2033.000000
21
540.000000
0
LINE
5
205
100
AcDbEntity
8
0
100
AcDbLine
10
1425.000000
20
463.000000
11
1468.000000
21
453.000000
0
LINE
5
206
100
AcDbEntity
8
0
100
AcDbLine
10
1513.000000
20
480.000000
11
1468.000000
21
453.000000
0
LINE
5
207
100
AcDbEntity
8
0
100
AcDbLine
10
1526.000000
20
536.000000
11
1513.000000
21
480.000000
0
LINE
5
208
100
AcDbEntity
8
0
100
AcDbLine
10
1494.000000
20
577.000000
11
1526.000000
21
536.000000
0
LINE
5
209
100
AcDbEntity
8
0
100
AcDbLine
10
1456.000000
20
589.000000
11
1494.000000
21
577.000000
0
LINE
5
210
100
AcDbEntity
8
0
100
AcDbLine
10
1430.000000
20
579.000000
11
1456.000000
21
589.000000
0
LINE
5
211
100
AcDbEntity
8
0
100
AcDbLine
10
1397.000000
20
542.000000
11
1430.000000
21
579.000000
0
LINE
5
212
100
AcDbEntity
8
0
100
AcDbLine
10
1397.000000
20
498.000000
11
1397.000000
21
542.000000
0
LINE
5
213
100
AcDbEntity
8
0
100
AcDbLine
10
1425.000000
20
463.000000
11
1397.000000
21
498.000000
0
ENDSEC
0
SECTION
2
OBJECTS
0
DICTIONARY
5
C
100
AcDbDictionary
3
ACAD_GROUP
350
D
0
DICTIONARY
5
D
100
AcDbDictionary
0
ENDSEC
0
EOF
